<svg width="93" height="90" viewBox="0 0 93 90" fill="none" xmlns="http://www.w3.org/2000/svg">
<path d="M44.3302 1.32849C42.187 1.39888 40.3729 1.56603 38.7278 1.84756C37.2427 2.09389 35.1885 2.53377 34.5037 2.74492C34.1836 2.84169 33.7478 2.94727 33.5255 2.99125C33.072 3.07043 30.5909 3.9326 30.4664 4.05577C30.4131 4.09975 30.3064 4.13495 30.2174 4.13495C30.1374 4.13495 29.9151 4.19653 29.7283 4.27571C29.5416 4.35489 29.3104 4.45166 29.2125 4.49565C29.1147 4.53084 28.7235 4.70679 28.35 4.87395C27.9765 5.0499 27.6474 5.19067 27.6207 5.19067C27.603 5.19067 27.0071 5.46339 26.3046 5.8065C24.4283 6.71264 23.1833 7.4077 21.9739 8.22588C21.6182 8.46341 21.0846 8.80652 20.8089 8.97366C20.5243 9.14079 20.1775 9.38717 20.0353 9.51029C19.893 9.63348 19.6529 9.80946 19.4928 9.89741C19.3328 9.99421 19.2082 10.0909 19.2082 10.1262C19.2082 10.1613 19.0037 10.3197 18.7458 10.4781C18.0344 10.9355 15.8913 12.7302 15.5267 13.1878C15.4733 13.2493 15.2954 13.4253 15.1265 13.5837C14.9664 13.7332 14.6463 14.0499 14.4151 14.2874C14.1928 14.525 13.6503 15.0792 13.2145 15.5191C12.7877 15.959 12.2808 16.4957 12.103 16.7068C11.9251 16.9267 11.6495 17.2434 11.4983 17.4106C11.3382 17.5865 11.2048 17.7625 11.2048 17.7977C11.2048 17.8329 11.0536 18.0264 10.8758 18.22C10.6891 18.4136 10.4756 18.6863 10.4045 18.8182C10.3333 18.9414 10.1999 19.1262 10.1199 19.2229C9.72864 19.6804 8.94604 20.8153 8.18131 22.0382C7.97675 22.3725 7.72778 22.7596 7.63881 22.8915C7.54103 23.0235 7.46987 23.1731 7.46987 23.2259C7.46987 23.2699 7.43432 23.3138 7.3987 23.3138C7.36315 23.3138 7.27425 23.4634 7.21196 23.6394C7.14086 23.8241 7.02521 24.0704 6.9363 24.1936C6.80291 24.3959 6.42942 25.1262 5.27337 27.4927C5.06884 27.9238 4.89099 28.3373 4.89099 28.3989C4.89099 28.4693 4.7487 28.8476 4.57085 29.2347C4.39299 29.6306 4.17957 30.1936 4.09064 30.4839C4.00171 30.7742 3.85054 31.2229 3.75272 31.4781C3.58376 31.9004 3.21915 33.1144 2.89013 34.3549C2.48106 35.8593 1.92971 39.0704 1.76964 40.7772C1.52954 43.4693 1.48507 45.1056 1.59179 46.8916C1.72518 49.0646 1.823 50.1731 1.94749 50.9385C2.00085 51.264 2.08088 51.8974 2.13424 52.3461C2.1876 52.8036 2.32099 53.5602 2.4366 54.0177C2.56109 54.4751 2.75673 55.3109 2.89013 55.8652C3.01462 56.4194 3.18358 57.0529 3.24583 57.2728C3.31698 57.4927 3.43258 57.8886 3.51261 58.1525C3.67268 58.6716 4.51749 60.9942 4.81984 61.7156C5.25558 62.7801 7.17641 66.6865 7.32761 66.8185C7.38096 66.862 7.49655 67.0468 7.58545 67.2144C7.83449 67.7066 8.46583 68.7451 8.75929 69.1318C8.91049 69.3258 9.09723 69.5983 9.17727 69.7303C9.46186 70.1968 10.1288 71.1291 10.44 71.4808C10.6001 71.6748 10.8935 72.0265 11.0714 72.264C11.2582 72.5101 11.436 72.7476 11.4805 72.7918C12.0318 73.5045 13.9793 75.6773 14.3884 76.0468C14.504 76.1523 14.8864 76.5047 15.2332 76.8386C16.9851 78.4927 20.222 81.0707 21.1646 81.5543C21.3336 81.6421 21.5559 81.7918 21.6448 81.8974C21.7427 82.003 21.8583 82.0822 21.9205 82.0822C21.9739 82.0822 22.1606 82.1877 22.3296 82.3111C22.4985 82.4339 22.8276 82.645 23.0677 82.7684C23.6546 83.0937 24.1971 83.3932 25.033 83.8591C25.4243 84.0795 25.8422 84.2906 25.9667 84.3256C26.0912 84.3605 26.2958 84.4661 26.4292 84.5631C26.687 84.7393 27.4873 85.0995 28.7235 85.601C30.7688 86.4192 31.1867 86.5776 31.6403 86.6924C31.9159 86.7715 32.3872 86.9207 32.6807 87.044C32.9742 87.1582 33.5166 87.3166 33.8812 87.3957C34.2458 87.4842 34.7261 87.5983 34.9483 87.6689C35.3841 87.8009 36.1044 87.9592 36.7269 88.0648C36.9492 88.0998 37.6073 88.2232 38.1942 88.3195C41.2533 88.8652 42.7828 88.9886 46.0643 88.9793C48.3586 88.9707 50.9107 88.8124 52.2002 88.5927C52.467 88.5485 53.0717 88.4515 53.5341 88.3723C53.9965 88.2931 54.5568 88.1968 54.7791 88.144C55.0014 88.0912 55.4193 87.9942 55.7128 87.9328C56.0063 87.8708 56.4687 87.7567 56.7355 87.6861C57.0023 87.6069 57.6248 87.4399 58.1138 87.3166C59.2788 86.9998 61.1908 86.3757 61.8044 86.1025C62.0711 85.9798 62.4713 85.8214 62.6936 85.7508C63.156 85.5924 65.4415 84.5367 66.4819 84.0003C66.8821 83.7891 67.4603 83.4896 67.7711 83.3226C68.0826 83.1643 68.4648 82.9353 68.6248 82.8212C68.7762 82.707 68.945 82.61 68.981 82.61C69.025 82.61 69.141 82.5487 69.2298 82.4781C69.3278 82.3989 69.8433 82.0644 70.3682 81.7305C70.9018 81.3874 71.3994 81.0443 71.4794 80.9737C71.5507 80.8945 71.7728 80.7361 71.9689 80.6127C72.5732 80.2347 74.4233 78.7652 75.3657 77.9121C77.1265 76.3199 79.8743 73.5045 80.2565 72.8888C80.3459 72.7391 80.4966 72.5629 80.5766 72.493C80.7194 72.3696 81.0929 71.8681 81.8572 70.7774C82.0266 70.5306 82.32 70.1176 82.5241 69.8537C82.7202 69.5897 82.9603 69.2202 83.0577 69.0355C83.1644 68.8507 83.3158 68.6303 83.3958 68.5512C83.6093 68.34 84.1782 67.3899 84.2582 67.1259C84.2942 67.0032 84.4096 66.7828 84.525 66.6423C84.6317 66.4925 85.0052 65.8153 85.352 65.1379C85.6902 64.4517 86.019 63.8182 86.0637 63.7303C86.7306 62.4898 86.7486 62.2347 86.1524 61.9795C85.9389 61.8916 85.5301 61.7068 85.2366 61.5661C84.9432 61.4341 84.5784 61.3021 84.4363 61.2669C84.0274 61.1877 84.0448 61.1613 83.0844 63.3783C82.9243 63.7567 82.7109 64.179 82.6042 64.3197C82.5068 64.4517 82.2934 64.8212 82.142 65.1203C81.6704 66.0003 81.2796 66.6509 80.4079 67.9177C79.0473 69.9064 78.4691 70.689 77.9001 71.2611C77.7487 71.4108 77.5353 71.6833 77.4113 71.8767C77.1265 72.3254 73.605 75.8092 73.0534 76.1965C72.8133 76.3635 72.4758 76.6274 72.2977 76.7858C72.129 76.9534 71.9242 77.1289 71.8529 77.1909C71.6041 77.402 69.9414 78.6247 69.6746 78.7916C69.5319 78.88 69.3098 79.0556 69.1851 79.1704C69.061 79.2845 68.7315 79.4871 68.4561 79.6276C68.1713 79.7682 67.9405 79.918 67.9405 79.9622C67.9405 79.9971 67.7805 80.1027 67.5757 80.1905C67.3803 80.2789 66.9534 80.525 66.6242 80.7361C66.2952 80.9387 65.975 81.1142 65.9217 81.1142C65.8594 81.1142 65.6015 81.2462 65.3436 81.4045C64.739 81.7833 63.5562 82.3375 62.0267 82.9617C61.6354 83.1201 61.1374 83.3226 60.915 83.4104C60.0169 83.7891 57.6159 84.5895 57.0912 84.6865C56.9667 84.7129 56.611 84.8007 56.2909 84.8884C55.0992 85.2229 53.2407 85.5839 51.0886 85.9006C50.5995 85.9705 49.239 86.0761 48.0651 86.1381C45.9842 86.2344 45.9131 86.2344 45.3173 86.0497C44.6147 85.8386 44.259 85.8122 44.1168 85.9883C43.9834 86.1467 43.1474 86.2437 42.5872 86.1731L42.1514 86.1117V85.6894V85.2671L41.0576 84.9062C40.4619 84.7037 39.9283 84.5453 39.866 84.5453C39.8126 84.5453 39.6437 84.8092 39.4925 85.1259L39.2169 85.7158L38.8612 85.663C38.2831 85.5924 37.7051 85.3371 37.7051 85.1523C37.7051 85.0646 37.8029 84.73 37.9185 84.4133L38.1319 83.8327L37.9363 83.71C37.5806 83.481 35.9088 82.7862 35.8199 82.839C35.7754 82.8654 35.6242 83.1379 35.4819 83.4368C35.0995 84.2286 34.9928 84.3078 34.5037 84.1586C34.0057 84.0089 33.6144 83.8327 33.6144 83.7627C33.6144 83.7271 33.4899 83.6308 33.3299 83.5424C33.0542 83.3754 33.0453 83.3754 32.9386 83.5424C32.574 84.0795 32.6095 84.0616 32.1827 83.8947C31.2134 83.516 31.1956 83.5074 31.4357 83.1907C31.6491 82.9089 31.5958 82.742 31.2312 82.5836C31.0445 82.5045 30.831 82.4339 30.7599 82.4339C30.5731 82.4339 29.7283 81.9324 29.5949 81.7391C29.3993 81.4666 29.1414 81.4751 28.9636 81.7476C28.7412 82.1171 28.7679 82.2141 29.2125 82.4959C29.5949 82.7334 29.7728 82.9531 29.4615 82.8034C29.097 82.6279 28.6434 82.4253 28.1454 82.232C27.852 82.1171 27.2829 81.8182 26.8827 81.5721C26.4736 81.3168 26.1268 81.1142 26.0912 81.1142C25.9934 81.1142 24.4105 80.3138 24.1259 80.1205C23.9748 80.0149 23.4323 79.6718 22.9343 79.3551C22.4363 79.0384 21.8583 78.6425 21.6448 78.4749C21.4403 78.308 21.0757 78.0262 20.8356 77.8593C20.6044 77.6924 20.3465 77.5076 20.2754 77.4456C20.2042 77.3756 19.8841 77.1203 19.5639 76.8742C18.9503 76.4077 17.9722 75.5545 16.9495 74.6044C16.0247 73.742 15.9268 73.645 15.162 72.7569C14.7708 72.3082 14.3083 71.7711 14.1305 71.5778C13.1345 70.4607 12.6099 69.7745 11.5605 68.2259C11.3649 67.9355 11.107 67.5575 10.9825 67.3899C10.6801 66.9504 10.0043 65.7977 9.53295 64.9267C9.31953 64.5132 9.1061 64.135 9.06169 64.0822C8.93717 63.9326 8.14569 62.3051 7.79888 61.4957C7.10524 59.8505 6.44721 58.1086 6.27825 57.4488C6.19821 57.132 6.02925 56.5602 5.91365 56.1731C5.46012 54.6863 4.96212 52.3725 4.80205 50.9825C4.7487 50.5426 4.66866 49.9355 4.6242 49.6188C4.57085 49.3021 4.50859 48.4135 4.48192 47.6394C4.45524 46.8652 4.39299 46.0558 4.34853 45.8359C4.28628 45.5719 4.28628 45.1672 4.34853 44.5602C4.40188 44.0763 4.48192 42.9326 4.53527 42.0089C4.6242 40.3461 4.82873 38.7889 5.17555 37.2141C5.49569 35.7361 5.78914 34.5397 5.88697 34.3109C5.93143 34.1877 6.01147 33.915 6.04704 33.6951C6.16264 33.0528 6.42053 32.261 6.9185 31.0558C7.07857 30.6423 7.38983 29.8681 7.60326 29.3402C7.98562 28.3637 8.53699 27.22 9.15946 26.0851C9.34621 25.742 9.58631 25.2845 9.69302 25.047C9.79974 24.8182 9.92426 24.6335 9.9598 24.6335C9.99542 24.6335 10.1466 24.3871 10.2977 24.0792C10.6357 23.3754 12.2097 21.0529 12.7788 20.4106C13.0189 20.1467 13.2857 19.8035 13.3746 19.6628C13.5258 19.434 14.5307 18.2464 14.6818 18.1232C14.7085 18.0968 14.7975 17.956 14.8775 17.7977C14.9576 17.6482 15.1354 17.437 15.2688 17.3315C15.4111 17.2259 16.2203 16.4605 17.0829 15.6335C17.9455 14.7977 18.8081 13.9971 18.9948 13.8387C19.1904 13.6892 19.5284 13.4077 19.7507 13.2229C19.9819 13.0382 20.471 12.6687 20.8445 12.4047C21.2269 12.1408 21.7249 11.7801 21.9561 11.6042C22.1873 11.4282 22.5163 11.2083 22.6853 11.1291C22.8543 11.0411 23.1299 10.8652 23.2989 10.7332C23.4679 10.6012 23.8147 10.3813 24.0548 10.2493C24.3038 10.1173 24.7039 9.86224 24.944 9.67749C25.3531 9.36955 25.8156 9.13201 26.7048 8.76251C26.9004 8.68333 27.1583 8.53375 27.3006 8.4194C27.434 8.30506 27.7453 8.16425 27.9765 8.10269C28.2166 8.04113 28.6968 7.88277 29.0347 7.74196C29.3815 7.59245 29.5949 7.53082 29.5149 7.59245C29.4438 7.64523 29.2481 7.80359 29.088 7.93556L28.8035 8.17309L29.008 8.48981C29.1236 8.65694 29.2481 8.79768 29.3015 8.79768C29.3459 8.79768 29.506 8.68333 29.6572 8.54259C29.9951 8.21704 30.5731 7.91794 30.8399 7.91794C31 7.91794 31.5069 7.72441 31.6403 7.61C31.6581 7.59245 31.578 7.42525 31.4624 7.23172C31.3557 7.02935 31.2846 6.85344 31.3023 6.83583C31.329 6.81821 31.6225 6.69509 31.9604 6.5719C32.4406 6.38715 32.6095 6.36075 32.6985 6.43993C32.8941 6.59829 33.072 6.99418 33.0097 7.09976C32.9742 7.15254 32.5562 7.39885 32.0849 7.65401C31.6047 7.90032 31.2134 8.15548 31.2134 8.20826C31.2134 8.26982 31.2934 8.41063 31.3823 8.53375C31.5335 8.7185 31.5869 8.73612 31.7648 8.64817C31.8715 8.59538 32.1471 8.48981 32.3694 8.41063C32.5918 8.33145 33.0187 8.12908 33.3299 7.94433C33.9257 7.60122 33.9701 7.49565 33.7834 6.95902C33.6945 6.71264 33.7123 6.66869 33.8901 6.51911C34.0057 6.42233 34.2725 6.30797 34.477 6.25518C34.9395 6.13201 35.1706 6.24639 35.3218 6.65985C35.3752 6.81821 35.4552 6.92378 35.4997 6.89739C35.5353 6.871 35.5441 6.90623 35.5175 6.97657C35.4552 7.15254 35.6331 7.55721 35.8109 7.62762C35.891 7.66278 36.1844 7.57483 36.4957 7.41647C36.798 7.27573 37.2782 7.03819 37.5717 6.89739C38.1764 6.60707 38.1764 6.60707 37.9008 5.70972C37.8029 5.38421 37.7496 5.07629 37.7851 5.02351C37.8563 4.91794 38.3009 4.75958 38.71 4.698C39.0923 4.64521 39.2969 4.80357 39.5281 5.32263C39.6437 5.57776 39.7771 5.8065 39.8126 5.83289C39.9283 5.90328 41.9202 5.11149 42.0447 4.95313C42.0981 4.87395 42.1514 4.65401 42.1514 4.46925V4.13495H42.9963C43.7521 4.13495 43.841 4.15254 43.93 4.3109C44.01 4.46046 44.0811 4.48685 44.3569 4.43407C44.5347 4.39888 44.8459 4.3109 45.0416 4.24052C45.7441 3.98539 49.4168 4.12615 51.7556 4.50445C52.0757 4.54843 52.5559 4.62761 52.8227 4.66281C53.4985 4.75958 54.3522 4.93553 54.5123 5.01471C54.5923 5.0499 54.868 5.11149 55.1348 5.13788C55.4016 5.17307 55.9618 5.29624 56.3798 5.41061C56.7977 5.52497 57.2335 5.63935 57.358 5.66574C57.7137 5.73612 59.2255 6.24639 59.7679 6.47512C60.0436 6.58949 60.3104 6.68624 60.3637 6.68624C60.5772 6.68624 63.574 7.94433 64.0186 8.21704C64.1965 8.33145 64.7567 8.62177 65.2725 8.86808C66.2507 9.34316 68.0646 10.3901 68.5181 10.7508C68.6695 10.874 69.025 11.1115 69.3185 11.2875C69.6119 11.4722 69.9681 11.7009 70.1101 11.8153C70.2522 11.9209 70.635 12.1936 70.9552 12.4311C71.7195 12.9766 71.8622 13.091 72.3157 13.4869C72.5292 13.6716 72.796 13.8915 72.92 13.9795C73.3469 14.261 75.197 16.0646 76.8777 17.8153C77.3846 18.3519 78.3804 19.5308 78.425 19.6452C78.4424 19.7068 78.5671 19.8563 78.6918 19.9883C78.8159 20.1115 79.012 20.349 79.1273 20.5162C79.2341 20.6745 79.4655 21.0001 79.6342 21.2464C80.5326 22.5309 80.9234 23.1291 80.9234 23.1995C80.9234 23.2523 81.0035 23.3578 81.1015 23.4458C81.1996 23.5338 81.4037 23.8241 81.5637 24.0968C82.0886 25.003 83.4312 27.6159 83.8227 28.4868C83.9381 28.742 84.0981 28.9707 84.1782 29.0059C84.3476 29.0675 84.7211 28.9531 85.6188 28.5396C85.975 28.3725 86.2858 28.2405 86.3218 28.2405C86.3571 28.2405 86.4458 28.179 86.5352 28.0998C86.7219 27.9326 86.7306 27.9678 86.037 26.525C85.7789 25.9883 85.4947 25.3989 85.4054 25.2053C85.3167 25.0118 85.0852 24.5983 84.8898 24.2816C84.6944 23.9649 84.3916 23.4106 84.2049 23.0499C84.0275 22.6804 83.7873 22.2669 83.6626 22.1261C83.4225 21.8358 82.7909 20.8153 82.7909 20.7185C82.7909 20.6921 82.5601 20.3754 82.2754 20.0323C81.9906 19.6804 81.6618 19.2493 81.5464 19.0558C81.3596 18.7478 80.9234 18.2112 80.4699 17.7185C80.3812 17.6129 80.3012 17.4986 80.3012 17.4634C80.3012 17.3754 78.6738 15.5895 77.5 14.393C76.9044 13.786 75.6145 12.6071 75.1876 12.2552C74.9922 12.1056 74.6541 11.8065 74.432 11.5953C73.9251 11.1203 73.6136 10.8652 73.0714 10.4693C72.84 10.3021 72.4578 10.0118 72.2264 9.83585C71.9956 9.65987 71.4974 9.32554 71.1326 9.088C70.7591 8.85931 70.1188 8.4458 69.71 8.17309C68.6875 7.50443 68.4648 7.36369 68.2073 7.23172C68.0826 7.17016 67.8245 7.02058 67.6291 6.90623C67.4336 6.78304 67.1309 6.62468 66.9621 6.5543C66.7934 6.47512 66.473 6.31676 66.2507 6.1936C64.7923 5.39301 62.9604 4.58363 61.4931 4.09096C61.2975 4.02938 60.7372 3.82703 60.2481 3.65107C59.4834 3.37835 58.3095 3.00885 58.0249 2.95606C57.9805 2.94726 57.9004 2.92087 57.8471 2.89448C57.8026 2.85928 57.5981 2.8065 57.4025 2.77131C57.2068 2.73612 56.8066 2.63934 56.5132 2.55137C56.2197 2.46339 55.5172 2.30503 54.957 2.19946C54.3967 2.09389 53.6764 1.96192 53.3563 1.89155C52.4225 1.69799 48.6876 1.33729 47.1758 1.2933C46.6867 1.28451 45.4062 1.3021 44.3302 1.32849ZM37.0292 5.26985C37.1004 5.37542 35.9977 5.83289 35.7842 5.7889C35.6953 5.77131 35.6064 5.70093 35.5886 5.62175C35.5441 5.39301 36.9047 5.0587 37.0292 5.26985ZM36.4512 84.8449C37.0559 85.0824 37.1448 85.2493 36.6469 85.2493C36.4512 85.2493 36.2644 85.2051 36.2378 85.1616C36.2111 85.1088 36.0866 85.0732 35.971 85.0732C35.6153 85.0732 35.5086 84.994 35.5531 84.7564C35.5975 84.5103 35.6242 84.5189 36.4512 84.8449Z" fill="#DF0001"/>
<path d="M33.5254 8.21708C33.1163 8.45462 31.8624 9.28164 31.7646 9.36959C31.7468 9.38721 31.7557 9.47517 31.7824 9.57196C31.8714 9.83589 32.0848 9.87984 32.3516 9.68631C32.485 9.59836 32.9652 9.33443 33.4276 9.09689C33.8811 8.86813 34.2724 8.62182 34.2991 8.56019C34.3258 8.49863 34.2724 8.33149 34.1746 8.18191L34.0056 7.92676L33.5254 8.21708Z" fill="#DF0001"/>
<path d="M29.1682 9.52802C28.9014 9.73039 28.5012 10.0031 28.2789 10.1351C27.772 10.4254 27.5498 10.6717 27.6208 10.8477C27.7276 11.1292 27.9943 11.1116 28.359 10.8037C28.5457 10.6453 28.9192 10.4078 29.1771 10.2758C29.9775 9.87113 30.093 9.74794 29.9952 9.44884C29.9508 9.3081 29.8529 9.18491 29.7818 9.17613C29.7107 9.16729 29.435 9.32565 29.1682 9.52802Z" fill="#DF0001"/>
<path d="M26.1622 9.94991C25.2818 10.5657 25.1751 10.6713 25.2551 10.8209C25.3885 11.0672 25.513 11.1112 25.6909 10.9792C26.3756 10.4865 27.0248 10.0555 27.256 9.94114C27.3983 9.87074 27.5317 9.73877 27.5495 9.65082C27.585 9.47484 27.4249 9.2373 27.2649 9.2373C27.2115 9.2373 26.7135 9.5628 26.1622 9.94991Z" fill="#DF0001"/>
<path d="M29.2927 11.0231C28.2434 11.7885 28.1189 11.9205 28.2523 12.1228C28.4123 12.3779 28.6703 12.3339 29.1682 11.9733C29.435 11.7797 29.8708 11.4806 30.1286 11.3046C30.5021 11.0407 30.5911 10.9351 30.5911 10.7328C30.5911 10.5128 30.4577 10.3809 30.2443 10.3809C30.2086 10.3809 29.7818 10.6712 29.2927 11.0231Z" fill="#DF0001"/>
<path d="M25.9044 11.7101C25.7888 11.7541 25.6998 11.8245 25.6998 11.8685C25.6998 11.9213 25.5931 12.018 25.4597 12.0972C25.1396 12.2644 24.2236 13.1089 24.1703 13.2849C24.0991 13.496 24.2681 13.7248 24.4904 13.7248C24.6149 13.7248 24.8728 13.5576 25.1485 13.2849C25.3975 13.0385 25.6465 12.845 25.6909 12.845C25.7443 12.845 25.9399 12.6867 26.1445 12.4931C26.4646 12.1852 26.4913 12.1236 26.4024 11.93C26.2779 11.6661 26.1623 11.6133 25.9044 11.7101Z" fill="#DF0001"/>
<path d="M23.388 11.8765C23.2635 11.9733 23.1301 12.0524 23.0945 12.0524C23.0589 12.0524 22.7388 12.3252 22.3919 12.6595C21.9029 13.1346 21.7783 13.3017 21.8228 13.4424C21.894 13.6624 22.223 13.7504 22.4009 13.6096C23.299 12.9146 24.0993 12.1844 24.0993 12.0612C24.0993 11.7005 23.7437 11.6038 23.388 11.8765Z" fill="#DF0001"/>
<path d="M26.0558 13.61C25.7179 13.9443 25.3177 14.3226 25.1754 14.4546C24.8731 14.7361 24.8464 14.8416 25.0154 15.088C25.2199 15.3519 25.5133 15.1936 26.3937 14.3138L27.2207 13.4956L27.034 13.258C26.9273 13.1261 26.8028 13.0205 26.7583 13.0205C26.705 13.0205 26.3937 13.2844 26.0558 13.61Z" fill="#DF0001"/>
<path d="M19.5905 15.282C18.5767 16.3201 18.5145 16.4081 18.7191 16.628C18.808 16.7248 18.9502 16.804 19.0303 16.804C19.1726 16.804 20.8088 15.1236 20.8088 14.9741C20.8088 14.8509 20.5332 14.5166 20.4353 14.5166C20.382 14.5166 19.9996 14.8597 19.5905 15.282Z" fill="#DF0001"/>
<path d="M22.036 15.2027C21.0844 16.1088 20.9333 16.3199 21.0667 16.5927C21.2356 16.9622 21.4757 16.8478 22.365 15.9504C22.8274 15.4842 23.2098 15.0619 23.2098 15.0179C23.2098 14.9827 23.1742 14.8772 23.1209 14.7891C22.9341 14.4373 22.7741 14.5077 22.036 15.2027Z" fill="#DF0001"/>
<path d="M23.3788 16.3018C23.0143 16.6009 21.876 17.947 21.876 18.0702C21.876 18.2109 22.1606 18.4748 22.3028 18.4748C22.4273 18.4748 22.5696 18.3429 23.0943 17.727C24.0636 16.5921 24.1703 16.3722 23.8413 16.1874C23.6189 16.0731 23.6545 16.0731 23.3788 16.3018Z" fill="#DF0001"/>
<path d="M17.252 17.8415C17.252 17.8766 17.0474 18.123 16.8073 18.387C16.3449 18.8796 15.8291 19.6098 15.8291 19.7682C15.8291 19.8737 16.1226 20.1464 16.2382 20.1464C16.2826 20.1464 16.5405 19.8825 16.8073 19.5658C17.0741 19.2491 17.4209 18.862 17.5721 18.7037C17.9456 18.3253 17.99 18.1494 17.7855 17.9471C17.6077 17.7711 17.252 17.7007 17.252 17.8415Z" fill="#DF0001"/>
<path d="M19.5995 17.8421C19.3683 18.0005 18.1411 19.6808 18.1411 19.848C18.1411 19.9887 18.6391 20.2615 18.7636 20.1911C18.8169 20.1559 18.9859 19.9271 19.1549 19.6808C19.315 19.4257 19.6351 19.0122 19.8574 18.7482C20.0886 18.4843 20.2754 18.2116 20.2754 18.1412C20.2754 17.8861 19.8307 17.6837 19.5995 17.8421Z" fill="#DF0001"/>
<path d="M20.5067 19.6807C20.4355 19.8214 20.1332 20.2437 19.8397 20.6309C19.2617 21.3874 19.1905 21.6074 19.4751 21.8449C19.7152 22.0472 19.8753 21.9505 20.2755 21.3786C20.4444 21.1411 20.7112 20.7716 20.8624 20.5605C21.2359 20.0502 21.2804 19.8302 21.0491 19.6191C20.8002 19.3815 20.6578 19.3992 20.5067 19.6807Z" fill="#DF0001"/>
<path d="M14.4686 21.5193C14.3441 21.6425 14.1574 21.9328 14.0507 22.1615C13.935 22.3815 13.7572 22.6806 13.6505 22.8301C13.357 23.2348 13.3126 23.4108 13.4815 23.5868C13.5705 23.6835 13.7039 23.7539 13.7839 23.7539C13.9173 23.7539 14.3175 23.4108 14.3175 23.2964C14.3175 23.2701 14.5397 22.8653 14.8154 22.3991C15.2867 21.5897 15.3045 21.5369 15.1445 21.4225C14.9044 21.2378 14.7087 21.2642 14.4686 21.5193Z" fill="#DF0001"/>
<path d="M16.8339 21.5715C16.6827 21.7299 16.3537 22.205 16.1136 22.6272C15.7135 23.3223 15.6868 23.4103 15.8024 23.5686C16.0247 23.8941 16.3271 23.8061 16.6027 23.3311C16.7361 23.1023 16.8695 22.9 16.8962 22.8736C17.0118 22.7768 17.6076 21.7475 17.6076 21.6419C17.6076 21.5187 17.3497 21.2988 17.1986 21.29C17.1541 21.29 16.9851 21.422 16.8339 21.5715Z" fill="#DF0001"/>
<path d="M18.2659 23.1205C18.1591 23.1821 17.341 24.5106 17.341 24.6162C17.341 24.6513 17.261 24.7745 17.1631 24.8976C16.9141 25.2143 16.932 25.4959 17.2254 25.6102C17.3499 25.6543 17.5099 25.6806 17.5633 25.6543C17.6256 25.6366 17.8212 25.3463 18.008 25.012C18.1858 24.6865 18.4348 24.3082 18.5415 24.1762C18.6571 24.0443 18.7727 23.8067 18.8083 23.6572C18.8617 23.4196 18.835 23.3493 18.666 23.2173C18.4259 23.0326 18.3993 23.0237 18.2659 23.1205Z" fill="#DF0001"/>
<path d="M12.2897 25.2233C12.2007 25.364 12.0496 25.6631 11.9606 25.8919C11.8717 26.1206 11.685 26.4901 11.5427 26.7188C11.2493 27.1763 11.2493 27.3523 11.5516 27.5018C11.9162 27.6866 11.934 27.669 12.7166 26.0502C13.0456 25.3552 13.0634 25.2936 12.9211 25.1441C12.7166 24.9153 12.4853 24.9505 12.2897 25.2233Z" fill="#DF0001"/>
<path d="M14.1929 26.1378L13.606 27.2903L13.8105 27.4574C13.9172 27.5455 14.0506 27.6158 14.1128 27.6246C14.264 27.6246 15.3845 25.6099 15.3845 25.3372C15.3845 25.1437 15.2066 24.9854 14.9754 24.9854C14.8153 24.9854 14.682 25.1877 14.1929 26.1378Z" fill="#DF0001"/>
<path d="M16.1049 27.1497C16.0071 27.2728 15.847 27.5808 15.7492 27.8271C15.6603 28.0823 15.4913 28.4605 15.3935 28.6805C15.1623 29.182 15.1623 29.4371 15.3757 29.5603C15.6425 29.701 15.7937 29.5867 16.0071 29.094C16.1138 28.8389 16.345 28.3286 16.514 27.9503C16.8074 27.2905 16.8163 27.2553 16.6652 27.0881C16.4606 26.8594 16.3184 26.877 16.1049 27.1497Z" fill="#DF0001"/>
<path d="M10.5024 29.0849C10.3156 29.3137 9.79092 30.6685 9.71975 31.0996C9.68421 31.2932 9.72869 31.4075 9.86208 31.5307C10.031 31.6802 10.0577 31.6802 10.2623 31.5571C10.4401 31.4427 10.6891 30.862 10.8936 30.0878C10.9025 30.0615 10.9736 29.8943 11.0537 29.7007C11.2315 29.2961 11.2404 29.1729 11.0981 29.0585C10.8402 28.8562 10.6802 28.865 10.5024 29.0849Z" fill="#DF0001"/>
<path d="M12.7701 29.1908C12.5833 29.5516 12.2721 30.4137 12.1387 30.9504C12.0408 31.3463 12.0408 31.4255 12.1565 31.5398C12.3254 31.707 12.3788 31.707 12.6456 31.5047C12.7968 31.3815 12.9212 31.1351 13.0279 30.7304C13.1169 30.4049 13.268 30.009 13.357 29.8683C13.5704 29.5163 13.5615 29.1557 13.3481 29.0325C13.0635 28.8829 12.9035 28.9269 12.7701 29.1908Z" fill="#DF0001"/>
<path d="M14.5218 31.0644C14.4685 31.1172 14.2462 31.6715 14.0416 32.2961C13.6593 33.4134 13.6593 33.431 13.8282 33.563C14.0772 33.7477 14.3351 33.695 14.4685 33.431C14.6108 33.1319 15.1177 31.4779 15.1177 31.2932C15.1177 31.2052 15.011 31.0996 14.8864 31.0557C14.6108 30.9501 14.6375 30.9501 14.5218 31.0644Z" fill="#DF0001"/>
<path d="M9.09739 33.1667C8.94619 33.3426 8.45711 34.9878 8.44824 35.3309C8.44824 35.5596 8.75057 35.8412 8.93732 35.7708C9.07958 35.718 9.1152 35.6476 9.40866 34.7503C9.69318 33.9145 9.78215 33.369 9.65763 33.2283C9.47975 33.0083 9.24859 32.982 9.09739 33.1667Z" fill="#DF0001"/>
<path d="M11.4359 33.1579C11.3648 33.2371 11.2402 33.6155 11.1602 33.9937C11.0802 34.372 10.9824 34.7767 10.929 34.8999C10.7956 35.2518 10.8401 35.5245 11.0446 35.6653C11.3559 35.8853 11.516 35.7093 11.7383 34.9087C12.1117 33.5274 12.1384 33.3691 12.0139 33.2283C11.8538 33.026 11.5871 32.9908 11.4359 33.1579Z" fill="#DF0001"/>
<path d="M13.3037 35.2961C13.1703 35.5072 12.7168 37.2404 12.7168 37.5571C12.7168 37.8123 13.0369 37.9618 13.3037 37.8387C13.4548 37.777 13.5171 37.6715 13.5171 37.4956C13.5171 37.3547 13.5705 37.0469 13.6416 36.8093C13.9973 35.5249 14.0062 35.4369 13.7839 35.2609C13.526 35.0586 13.4638 35.0586 13.3037 35.2961Z" fill="#DF0001"/>
<path d="M8.05703 37.4955C7.9948 37.6098 7.86141 38.164 7.78138 38.7271C7.6035 39.8532 7.63905 40.0292 8.04816 40.0292C8.35049 40.0292 8.44833 39.8444 8.53723 39.0878C8.58172 38.7095 8.65282 38.2432 8.6973 38.0409C8.74179 37.8473 8.74179 37.601 8.70617 37.4955C8.6084 37.2315 8.22597 37.2403 8.05703 37.4955Z" fill="#DF0001"/>
<path d="M10.4756 37.4516C10.3955 37.5396 10.3155 37.8035 10.2888 38.0499C10.2622 38.2874 10.191 38.78 10.1376 39.132C10.0309 39.827 10.0931 40.0294 10.4044 40.0294C10.6445 40.0294 10.7957 39.7918 10.8579 39.2904C10.8846 39.044 10.9647 38.5601 11.0358 38.2082C11.1247 37.6892 11.1336 37.5572 11.0358 37.4428C10.8758 37.2581 10.6445 37.2669 10.4756 37.4516Z" fill="#DF0001"/>
<path d="M12.4675 39.5189C12.3697 39.642 12.1563 41.9382 12.2363 42.0614C12.3074 42.1758 12.7521 42.1582 12.8766 42.035C12.9388 41.9734 12.9833 41.7447 12.9833 41.5247C12.9833 41.296 13.0277 40.7857 13.0811 40.3898C13.1611 39.8356 13.1523 39.642 13.0722 39.5453C12.9388 39.3869 12.592 39.3693 12.4675 39.5189Z" fill="#DF0001"/>
<path d="M7.52344 41.8068C7.49676 41.9212 7.46121 42.2643 7.43453 42.581C7.40786 42.8977 7.3545 43.364 7.32782 43.6279C7.27446 44.0326 7.29221 44.1206 7.4256 44.2262C7.64796 44.3845 7.9681 44.3757 8.03919 44.2086C8.06587 44.1294 8.11923 43.5751 8.14591 42.9769C8.21707 41.7892 8.16371 41.6133 7.77241 41.6133C7.63015 41.6133 7.55012 41.6748 7.52344 41.8068Z" fill="#DF0001"/>
<path d="M9.83515 41.7627C9.76398 42.0355 9.73731 44.1117 9.80847 44.2261C9.85289 44.2876 9.97741 44.3404 10.0841 44.3404C10.1997 44.3404 10.3331 44.2876 10.3865 44.2261C10.4932 44.0941 10.5643 41.8771 10.4665 41.7187C10.3509 41.5515 9.8885 41.5868 9.83515 41.7627Z" fill="#DF0001"/>
<path d="M12.1475 43.8647C12.0408 44.1286 12.0853 46.3193 12.2009 46.4336C12.3432 46.5744 12.4943 46.5656 12.6634 46.3984C12.7789 46.2929 12.8056 46.0377 12.8056 45.0964C12.8056 44.3134 12.7701 43.8999 12.6989 43.8295C12.5477 43.68 12.2098 43.6976 12.1475 43.8647Z" fill="#DF0001"/>
<path d="M9.78209 46.0557C9.6309 46.2404 9.70206 48.4047 9.871 48.5982C10.0133 48.7742 10.2623 48.7742 10.4134 48.5982C10.5558 48.431 10.538 46.214 10.3868 46.0381C10.2623 45.8797 9.91548 45.8973 9.78209 46.0557Z" fill="#DF0001"/>
<path d="M7.32749 46.1441C7.29188 46.2233 7.29188 46.4872 7.32749 46.7424C7.35417 46.9975 7.39859 47.4374 7.43421 47.7277C7.46088 48.018 7.49643 48.3436 7.52311 48.4491C7.55866 48.6603 7.8077 48.7746 8.03 48.6867C8.15452 48.6427 8.17226 48.5019 8.12784 47.7013C8.10116 47.1823 8.05667 46.6016 8.02112 46.408C7.95883 46.0913 7.93215 46.0561 7.66537 46.0298C7.46975 46.0121 7.36304 46.0474 7.32749 46.1441Z" fill="#DF0001"/>
<path d="M12.2807 48.202C12.183 48.2637 12.1652 48.422 12.2185 48.9763C12.3875 50.8149 12.4319 50.9381 12.9388 50.8149C13.1611 50.7622 13.1789 50.727 13.1256 50.4279C13.0989 50.2519 13.0455 49.7417 13.0189 49.3105C12.9477 48.2724 12.7165 47.9293 12.2807 48.202Z" fill="#DF0001"/>
<path d="M7.78124 50.3841C7.66559 50.4896 7.64785 50.6128 7.6834 50.8415C7.71894 51.0175 7.78124 51.4749 7.82566 51.8621C7.93237 52.6539 8.03908 52.9354 8.28812 53.0146C8.67936 53.1289 8.81275 52.6803 8.626 51.8797C8.58158 51.6773 8.51929 51.2814 8.49261 50.9999C8.41258 50.3049 8.11912 50.041 7.78124 50.3841Z" fill="#DF0001"/>
<path d="M10.0843 50.3662C10.0487 50.4453 10.0754 50.8061 10.1376 51.1843C10.1999 51.5538 10.2799 52.0642 10.3155 52.3192C10.4044 52.8823 10.4489 52.9615 10.7067 52.9615C11.1069 52.9615 11.1603 52.7679 11.0002 51.9146C10.9202 51.4923 10.8491 51.0172 10.8491 50.8676C10.8491 50.3926 10.2265 49.9967 10.0843 50.3662Z" fill="#DF0001"/>
<path d="M12.7523 52.6535C12.7256 52.7767 12.7612 53.1286 12.8502 53.4277C12.9302 53.7268 13.0458 54.2107 13.108 54.4922C13.2237 55.064 13.4104 55.2664 13.6772 55.1081C13.7661 55.0553 13.8373 54.8793 13.855 54.6858C13.8906 54.3339 13.5438 52.7239 13.4015 52.5392C13.357 52.4864 13.2058 52.4336 13.0636 52.4336C12.8679 52.4336 12.7968 52.4864 12.7523 52.6535Z" fill="#DF0001"/>
<path d="M8.60838 54.581C8.39496 54.7394 8.40383 54.8362 8.74177 56.059C8.98188 56.9476 9.06191 57.1324 9.23972 57.2116C9.4176 57.2995 9.47095 57.2819 9.61321 57.1148C9.75554 56.93 9.76441 56.886 9.63989 56.499C9.5688 56.2702 9.45315 55.8127 9.38205 55.4784C9.18636 54.5634 8.96407 54.3083 8.60838 54.581Z" fill="#DF0001"/>
<path d="M10.938 54.6772C10.8135 54.8267 10.858 55.2138 11.0803 55.9616C11.1514 56.2255 11.2581 56.5862 11.3115 56.771C11.4449 57.2109 11.5961 57.3252 11.8717 57.202C12.1296 57.0877 12.1385 56.9997 11.9606 56.3223C11.8895 56.0496 11.7828 55.5921 11.7295 55.3194C11.6761 55.0378 11.5783 54.7475 11.5071 54.6772C11.3293 54.51 11.0803 54.51 10.938 54.6772Z" fill="#DF0001"/>
<path d="M13.997 56.6565C13.659 56.7884 13.659 56.9028 14.0059 57.8881C14.2726 58.636 14.326 58.8207 14.3615 58.9791C14.4327 59.2869 14.575 59.375 14.8596 59.2782C15.0018 59.2342 15.1263 59.155 15.1263 59.111C15.1352 59.067 15.1441 58.9791 15.153 58.9174C15.1619 58.8646 15.0997 58.636 15.0196 58.416C14.9396 58.1961 14.7795 57.7298 14.6728 57.3779C14.4772 56.718 14.3082 56.5421 13.997 56.6565Z" fill="#DF0001"/>
<path d="M9.88895 58.7948C9.70221 58.8828 9.6844 58.9356 9.72888 59.2435C9.76443 59.437 9.81779 59.6394 9.86227 59.6922C9.89782 59.7361 10.0401 60.0792 10.1824 60.44C10.3158 60.8007 10.4669 61.1526 10.5203 61.2053C10.6448 61.3725 10.8849 61.3461 11.0628 61.1526C11.2317 60.9766 11.1872 60.8182 10.6626 59.6658C10.5736 59.4634 10.4936 59.2171 10.4936 59.1203C10.4936 58.9619 10.2713 58.6716 10.1557 58.6892C10.1201 58.6892 9.99567 58.7332 9.88895 58.7948Z" fill="#DF0001"/>
<path d="M12.1472 58.8648C12.0494 59.0056 12.0405 59.1112 12.1116 59.2871C12.1561 59.4103 12.2095 59.5774 12.2272 59.6478C12.2806 59.8414 12.5385 60.5276 12.6719 60.8355C12.7341 60.9763 12.8053 61.1699 12.8408 61.249C12.9031 61.4426 13.1432 61.4513 13.3744 61.2754C13.5434 61.1522 13.5434 61.1346 13.3922 60.598C13.3033 60.2901 13.1343 59.8062 13.0098 59.5159C12.6363 58.6713 12.4139 58.4953 12.1472 58.8648Z" fill="#DF0001"/>
<path d="M15.3666 60.8009C15.2777 60.8448 15.2065 60.9593 15.2065 61.0384C15.2154 61.4167 15.9891 63.1499 16.247 63.3522C16.3448 63.4314 16.4159 63.4138 16.5849 63.2554C16.8695 62.9915 16.8695 63.0003 16.167 61.5663C16.1314 61.4783 16.0958 61.3551 16.0958 61.2847C16.0958 61.1264 15.749 60.7041 15.6245 60.7041C15.5622 60.7041 15.4466 60.7481 15.3666 60.8009Z" fill="#DF0001"/>
<path d="M11.454 62.8239C11.3651 62.8679 11.2939 62.9735 11.2939 63.0439C11.2939 63.2286 12.2366 65.0145 12.45 65.2257C12.5745 65.3489 12.6457 65.3665 12.7879 65.2873C13.0903 65.1289 13.0725 64.9706 12.6812 64.1436C12.0409 62.8064 11.8453 62.5952 11.454 62.8239Z" fill="#DF0001"/>
<path d="M13.7837 62.9036C13.597 63.0884 13.6147 63.2028 13.9171 63.6954C14.0238 63.8626 14.1483 64.1002 14.1839 64.2233C14.2195 64.3465 14.3173 64.5224 14.4062 64.6192C14.4951 64.716 14.593 64.8831 14.6285 64.9975C14.6997 65.2526 14.9309 65.367 15.1888 65.2702C15.4555 65.1734 15.4378 64.9095 15.1177 64.3113C14.9753 64.0474 14.7442 63.5811 14.593 63.2731C14.2995 62.6749 14.1039 62.5869 13.7837 62.9036Z" fill="#DF0001"/>
<path d="M17.1541 64.8214L16.9585 64.9886L17.1897 65.3757C17.3142 65.5868 17.5454 66.0091 17.6965 66.308C17.8566 66.6076 18.079 66.9329 18.1946 67.047C18.3813 67.2232 18.4347 67.2318 18.6303 67.1262C18.9504 66.9593 18.906 66.7039 18.4525 66.0441C18.2301 65.7188 18.0523 65.4373 18.0523 65.4109C18.0523 65.2701 17.5898 64.6631 17.4831 64.6631C17.412 64.6631 17.2697 64.7335 17.1541 64.8214Z" fill="#DF0001"/>
<path d="M13.6325 66.6154C13.2679 66.7916 13.339 66.9849 14.2994 68.4893C14.6641 69.0521 14.8597 69.1491 15.162 68.9294C15.3399 68.7882 15.3399 68.7882 15.1709 68.5071C15.082 68.3488 14.8864 67.9964 14.7352 67.7061C14.584 67.425 14.3172 67.0463 14.1394 66.8615C13.8637 66.5626 13.8014 66.5362 13.6325 66.6154Z" fill="#DF0001"/>
<path d="M15.9359 66.6513C15.8291 66.7219 15.7402 66.8189 15.7402 66.8624C15.7402 66.9858 16.8785 68.8511 17.0297 68.9739C17.2342 69.1415 17.6077 68.9567 17.6077 68.6928C17.5988 68.446 16.3538 66.5107 16.2026 66.5107C16.1671 66.5107 16.0426 66.5721 15.9359 66.6513Z" fill="#DF0001"/>
<path d="M19.4574 68.4808C19.3685 68.5422 19.2974 68.6656 19.2974 68.7447C19.2974 69.0087 20.5957 70.7592 20.827 70.8034C20.987 70.8298 21.2538 70.6008 21.2538 70.4246C21.2538 70.2577 19.8399 68.3574 19.7153 68.3574C19.6531 68.3574 19.5375 68.4188 19.4574 68.4808Z" fill="#DF0001"/>
<path d="M16.0248 70.2577C15.9181 70.3283 15.8291 70.4425 15.8291 70.4953C15.8291 70.6622 16.4872 71.6123 16.9318 72.0703C17.3498 72.5189 17.4743 72.5625 17.7411 72.3692C17.9011 72.255 17.9011 72.2372 17.7055 71.8677C17.5899 71.6566 17.4121 71.4012 17.3053 71.3049C17.2075 71.2079 17.0474 71.0053 16.9496 70.8648C16.7628 70.5659 16.3538 70.1172 16.2738 70.1172C16.2471 70.1172 16.1315 70.1786 16.0248 70.2577Z" fill="#DF0001"/>
<path d="M18.3099 70.2841C18.1232 70.4339 18.1143 70.4689 18.221 70.6714C18.2922 70.7942 18.4967 71.0673 18.6834 71.2785C18.8702 71.4896 19.0302 71.683 19.0302 71.7179C19.0302 71.7621 19.1726 71.9469 19.3504 72.1402C19.6972 72.5189 19.9106 72.5717 20.133 72.3514C20.2574 72.2286 20.2574 72.193 20.133 71.9555C20.0618 71.8063 19.9373 71.6651 19.8662 71.6387C19.8039 71.6123 19.7417 71.5596 19.7417 71.5068C19.7417 71.4632 19.6795 71.3662 19.6083 71.2956C19.5371 71.2257 19.3148 70.9354 19.1103 70.645C18.9058 70.3547 18.6924 70.1172 18.6301 70.1172C18.5678 70.1172 18.4256 70.1964 18.3099 70.2841Z" fill="#DF0001"/>
<path d="M22.063 72.0002C21.8584 72.2199 21.8584 72.2727 22.1342 72.6072C23.388 74.138 23.7526 74.3842 24.0194 73.8919C24.0905 73.7507 24.0639 73.6715 23.8593 73.4696C23.7259 73.3377 23.4147 72.9946 23.1835 72.7042C22.641 72.0352 22.4098 71.7891 22.3298 71.7891C22.2942 71.7891 22.1697 71.8861 22.063 72.0002Z" fill="#DF0001"/>
<path d="M18.7103 73.6711C18.6214 73.8209 18.5947 73.935 18.657 74.032C18.7637 74.2346 20.0087 75.4836 20.2576 75.642C20.4444 75.7654 20.48 75.7562 20.6489 75.5978C20.7645 75.4751 20.809 75.3603 20.7735 75.2375C20.6934 75.0086 19.1194 73.46 18.9682 73.46C18.906 73.46 18.7903 73.557 18.7103 73.6711Z" fill="#DF0001"/>
<path d="M21.1204 73.7244C20.9248 73.9356 20.8714 73.8564 22.2142 75.273C22.7033 75.7923 23.0679 75.8537 23.1747 75.4228C23.228 75.238 23.1124 75.0883 22.4454 74.3935C21.6184 73.5311 21.3961 73.4255 21.1204 73.7244Z" fill="#DF0001"/>
<path d="M24.944 75.2199C24.7928 75.3868 24.7928 75.4046 24.944 75.6336C25.0329 75.7741 25.273 76.0203 25.4687 76.1879C25.6643 76.3548 26.0111 76.6629 26.2423 76.8648C26.6959 77.2785 26.8203 77.3228 26.9982 77.0852C27.2472 76.7593 27.1404 76.5837 26.2423 75.8355C25.9844 75.6158 25.6643 75.3519 25.5309 75.2463C25.2463 75.0002 25.1485 74.9909 24.944 75.2199Z" fill="#DF0001"/>
<path d="M21.9917 76.6366C21.5293 76.8121 21.8316 77.2258 23.2367 78.3343C23.6191 78.6247 23.6991 78.6596 23.8859 78.5719C24.2327 78.4221 24.1616 78.1054 23.6902 77.7273C23.4679 77.5511 23.1834 77.2872 23.05 77.1552C22.6587 76.7686 22.2141 76.5482 21.9917 76.6366Z" fill="#DF0001"/>
<path d="M24.277 76.6976C24.1081 76.8296 24.0992 76.8824 24.1881 77.0849C24.3304 77.3924 25.9044 78.6507 26.1445 78.6507C26.4024 78.6507 26.5625 78.2812 26.4024 78.0615C26.269 77.8853 25.353 77.0671 24.9173 76.7326C24.5972 76.4951 24.5349 76.4951 24.277 76.6976Z" fill="#DF0001"/>
<path d="M28.3324 78.0615C28.2435 78.1228 28.1812 78.2548 28.2079 78.3426C28.2346 78.5187 30.102 79.9704 30.2888 79.9704C30.4667 79.9704 30.6089 79.715 30.5556 79.5039C30.5111 79.3105 28.9282 78.0437 28.6347 77.9731C28.5636 77.9559 28.4302 77.9909 28.3324 78.0615Z" fill="#DF0001"/>
<path d="M25.4689 79.2494C25.3711 79.3108 25.1665 79.6453 25.1665 79.7417C25.1665 79.7944 26.367 80.7624 26.8028 81.0613C27.2474 81.3609 27.3541 81.3516 27.5675 80.9999C27.8166 80.5955 27.7899 80.5163 27.3452 80.3223C26.9184 80.1468 25.9668 79.487 25.8513 79.293C25.7712 79.1702 25.62 79.1439 25.4689 79.2494Z" fill="#DF0001"/>
<path d="M27.6205 79.4515C27.4961 79.6277 27.505 79.6627 27.665 79.8652C27.7539 79.9886 28.0919 80.2347 28.4032 80.4109C28.7233 80.5957 29.1145 80.8503 29.2835 80.9737C29.6659 81.2641 29.7548 81.2641 29.9238 80.9473C30.0572 80.6834 30.0572 80.6834 29.6748 80.4281C29.4703 80.2875 29.0434 79.9972 28.7233 79.7775C27.9674 79.2582 27.7984 79.2054 27.6205 79.4515Z" fill="#DF0001"/>
<path d="M31.9781 80.8063C31.8358 81.026 31.8358 81.026 32.2449 81.2722C32.4761 81.4041 32.7873 81.6245 32.9385 81.7565C33.0897 81.897 33.3742 82.0903 33.561 82.1873L33.9167 82.3635L34.0857 82.1609C34.2546 81.9498 34.2546 81.9498 33.979 81.7208C33.8278 81.5981 33.5877 81.4397 33.4543 81.3691C33.3209 81.2985 32.9919 81.0966 32.7251 80.9205C32.4583 80.7357 32.2093 80.5859 32.1826 80.5859C32.147 80.5859 32.0581 80.6829 31.9781 80.8063Z" fill="#DF0001"/>
<path d="M31.3913 81.8975C31.2934 82.038 31.2134 82.1964 31.2134 82.2492C31.2134 82.302 31.4268 82.4432 31.6847 82.5659C31.9337 82.6893 32.4494 82.9446 32.8141 83.138C33.1787 83.3313 33.5077 83.4811 33.5611 83.4632C33.6055 83.4461 33.6944 83.2699 33.7567 83.0588L33.8634 82.6807L33.1876 82.3726C32.8141 82.2056 32.2983 81.9767 32.0404 81.8625L31.578 81.6514L31.3913 81.8975Z" fill="#DF0001"/>
</svg>
